/* XPM */
static char *open_icon[] = {
"16 16 3 1 0 0",
"  c #000000",
"! c #FFFFFF",
"# c None",
"################",
"################",
"################",
"################",
"####         ###",
"#### ####### ###",
"#### ####### ###",
"#### ####### ###",
"#### #     # ###",
"#### ####### ###",
"#### ####### ###",
"#### ####### ###",
"####         ###",
"################",
"################",
"################"
};
