/* XPM */
static char *eyes_xpm[] = {
"128 32 30 1",
"A	c #12120E",
"B	c #351F0F",
"C	c #343C2F",
"D	c #542C13",
"E	c #672F0F",
"F	c #472F20",
"G	c #294215",
"H	c #79401D",
"I	c #4A6015",
"J	c #6B482F",
"K	c #4F623D",
"L	c #687926",
"M	c #595046",
"N	c #726C65",
"O	c #8F4517",
"P	c #9F5827",
"Q	c #9B6137",
"R	c #886549",
"S	c #AE7A4C",
"T	c #B98C5F",
"U	c #93A34D",
"V	c #AF8965",
"W	c #8F8982",
"X	c #AFACA6",
"Y	c #C1A78C",
"Z	c #CEBEA4",
"a	c #C6CD85",
"b	c #CDC1B5",
"c	c #D9D3CD",
"d	c #EBEBE8",
"AAAAAAESZYYYbcYTTTTYXZbZZbZZbZXZbcccdddcdccccbbZbbbbZYYYSSSYZccccYYYRJRRRVVVYYZZZZZZccccccccdcdcdccccbbbZZYTPOHEOEEEEDDDDBAAAAAA",
"AAAAAAHTTVTTbbTTTYZYZYYYYYYYYYZZccccccdcccbbbbZXYZXZYXYTSSSZcdccbXXSVRJRRRVVVVTVYYYYYYZZbZZbZcccccccccbZYYSSQOHOHEEEEEDDDBAAAAAA",
"AAAAAAJSTTYbaTTYYYYYSSSSSTYYZbcccccZccZbZZXYYXYSSSRSYZSSQSYZcdcccXZYRRJHJJHRVSVSTTVYYYYYYYYYYYZZZbbbbbbZYYSSPHHQOEEEEEDDDBAAAAAA",
"AAAAAADQSTZYTTYYTTTSZbbcccccccccbZcZXYYZYZVSSRRQRRJOOQSPSYZccdcccbZYYRRJJHJHRRRVSVSVTTSVVSTVSVTVTTYZbZYYYYVQQPQQHOEEEDDBDAAAAAAA",
"AAAAAABOTTYTTTTTTYZcccZbbbXbZXYXZXYWVVRRRRRRHHJEEEHEHHHPQYcdddcccbZYSRRHJHJHHHRQRSRSVSVSSSRSRQSRSQSYZZYYSYYTSQQPOEEEEDDDBBAAAAAA",
"AAAAAADQTTTTTTTYYZcZZYVVSQQRQQRQORRPJRJJJJJDJDEDDEDEEEOOSbcdcdcccbYWVRRJEJHJHHHHJQRQRQRRRRQSQQQQQQQQSYVSYTTSSSQOHOEEEEDDBAAAAAAA",
"AAAAAADSVYTTTTTbccZYTQQHHHHHHHHHEEDEDDDDDBDDDFDDFDBDDEEOScdddddcbbYYRRRJDDJHEDHEEHHHHJEQJQRJQHQHHHQQQVSVVSPPQPPPQHHEEDBDBAAAAAAA",
"AAAAAAHQTTTTTTVbZYTQQHHHHHHEEEDDDDDDFDFBBBBBFFFCFFFBBDEHSccdddcbbXZYVRMJEDEJHEJDEDDEJEDEEEJOJHJHHHJQQSVSQQPPPPPPHOEEEDDDBBAAAAAA",
"AAAAAADQSSSTTYbYYSRHODEFDJFJFJFFFFFFMFMFMFMMMMMMMFMFFDEHYcddddcbYbZWRRRDDDHJHEEDDDDDDDDDDDDEDEJEJHDHHRQQQOOOOOOOOHEEDDDBBAAAAAAA",
"AAAAAAFQSPSSTYYSPHJDFFFMJMMNNNNNNNNNNNNNNNMMMCAMMNMMFFDHVcccdcZbbYYXRJJDDEJEJDEDDDDJFFFFDFDDDDDDEDEHEHHHHEOOHOHOHEEEDEBDBBAAAAAA",
"AAAAAAFRPPSTYYSQJDDFMMMNWWWWWWXXXXWXWXWXWWWCCAAAMNNMFDDJYcddccZZXYYRRJJDDDJHEDDJFMMNNMMMFFFDFDDDDJDEEHHHHEEOEOOEOEEEDDDBBAAAAAAA",
"AAAAAARSPPSTYSQEJFFMNWXZXXcccdcdcdcccXcXcXULIGCAAMWRFFDQYccddbZYZVSSJHJDDDJEJDDJJNNWWWNWNNNJMFJFDDJDJDDEEEEEEEEEEEDEDDDDBBAAAAAA",
"AAAAAMRPPPPSSOHDJMNNXbddddddddddddddddcdccUUUCAACCWRJFJQYccccZZYYSPRJHDJDDJEDDJNNWXWXcXXWWWWNNNMJFJJDDJDDEEEEEEEEEDDDBBBBAAAAAAA",
"AAAAAVSPPPSSPPHJMNWXdddddddddddddddddcdddZUUKCAAAGWSJHQQYccccZYVTSPQQHJHDEJHHDRNWXXcddcccccXXWWNNNMMMFFFFFFDDDDEDEDDDDDBBBAAAAAA",
"AAAAWVQPOQTYPPHRWXXcddddddddddddddddcdcccaaaCAAAAGNSQRQSYccccXTSSSQQQJEJEHHQHHRWXXcddddcddddccXXWWNNNNMJFJFFDDDDEDDDBBDBBAAAAAAA",
"AAAMVTPPPYYYSQSWXXcddddddddddddddddccddddZadKAAAAMRQSSSSZZccZYYYVSSQQHJEHHHQHQWXXZddddddddddddddcXXXWWWNNNNMJDDDDEEDDDBDBAAAAAAA",
"AAANVSPPSYYSTVYXXcddddddddddddddddddccccdcYUGAACMRSTSSSSYcccZbYYYVQQQHJHHHQPHQWXXcdcdddddddddddddccXbWUKKNWWNMDEDEDDBDDBBAAAAAAA",
"AAAYTSPPYYSQVVSXXcdddddddddddddddddddcccdcXUKCCMRSTSQQPSYccccZYYYVQPQQJEEHQQQQXXccddddddddddddddddcdcaULKKNWWWJDEEEDEBDDBAAAAAAA",
"AAAYTSPPYYPPTVQVXcdcdddddddddddddcdcccdcXZXYWWVVSSQPPPPSZcccZcbZYYPPQHHJHHQPQQZXXcdcdddddddddddddddcaaLLGGKNXWNJEEEEBDBDBAAAAAAA",
"AAMZTTPQYSQOQSQSVYcddddcdddddddddcddccXZZYVTTTVTQQPPPPPTYcdccbZXYYQPQQHHEOQQQQSbYXcdddddddddddddcddXUUUWAAFMWWNNEEDEDDBBBAAAAAAA",
"AAMZYSPSSSPHQSQQSVZcdddccccccdcdcdcXZZZYYYYYYSSVSTTSSSSTZcccccbbYYQQOQQJHHPQSRVVZYYZddddddddddddddcaUIMNAAACNWNJJHEDBBDBBAAAAAAA",
"AANXYYSSVSPHHQQQSVYYZVYYTVVYVVVYYZbYYSSQQQSSQSSSSSSSSSTYccccccbbYVSQOQPQHHOQQQSVYYYSYbcdddddddcddcbaUUMAAAAMNNJDRJDDDDDBBAAAAAAA",
"AAYZbYSSSQQOHHQQSSSSSSSVTTSTSSPPPQQSQQPQPPPPPSSSSSSTSTYYccdccbbZYYSQPOOQQHPQQHHQSYYYTSZdcdcdddcccccUUdXAAAAMNNJERREDBBDBBAAAAAAA",
"AAXbZZTSSQQQOQQSTYYZZZZcbZbbZTYTSSQQSPSPSPSPSQSSTSTYYYZZccdcbcbZYSVSQPOPPQOQQQHPQSTVTSSVYccdccddcddZULKAAAMNRDEHHJDDDBDBBAAAAAAA",
"AAbbXYTSPPQOEQVYcddddddcdccZZXYSSYSTSSSSSSSSSSVVYYYYZcZccddccbbbYYYSSQOPPPQQQQQPESQSSPSPSSSTYVZXccccXKNMMMMJHJEHRDDDBBDBBAAAAAAA",
"AFXbZYSTSSSQSYZcddddddddcZZZZYYYYSSVTSTTSSSQSSVSSYXbZccccddcccccbbZYSTQPOPPQSRQQPPPPPSSSSSSSSSPPQQSSSRRRRQHHHHHHEDDDDBBBBAAAAAAA",
"AMXbZYYSYYSYYccdddddddccZZYYZYYYXYZYZYYYTTTTVYSYYYYccdddddddcccccccbZYTQPPPQSQQQQQQPPPQSTYZZZZTTSPPOOPQQQHPHOOEHEEDBBDBBBAAAAAAA",
"AMXbXYYYYXZZcdddddddddcYZYYZYYYYZbcccccbYZYYYYYYZbcccdddddddcccccccccbYVQPPPSVSPQQQQPOPPOSYZcddZZTSPPPQQSVQQHHOEEDEDBDBBAAAAAAAA",
"AMXcYXYYYbcccddcdddcdZYYYZbZYYXZccdddcccbbZXYZXYbbddddddddddddddcdcccbYYVQPPQSYVVVVYSSPPPPSYZcddbZYTTSSSTSVSQOHEEDDBDBBDBAAAAAAA",
"ARXbZYYYYZccccdddccZcZYYXYXVVZbcddddddcccbbZbbZcccddddddddddcccdcccccbZYYSQPQQVXXXXccbZTSSPSYZccdZZYYTTVWSVVSQOEEDDDBDBBBAAAAAAA",
"ANbXXZZZZcccdcdcZcZZYYYYYXVRYbdddddddcccbZYZZYZbcdddddddddddddcccccXcbYYYYSQQQVYbcccccccZTSSSTbcccZZbYYYYSVVVQHEEDDBDBBDAAAAAAAA",
"ANbbYbYZZZcccccccZZYYYYXXXRSZcccdcdccbZbbXYYVYYZcddddddddddcdcddcccbbXXYYYSPQQVZcXccdcdcYYTQTSYbcccbZYTYZYZVSQOEDDDBDBDBBAAAAAAA"
};
