/* XPM */
static char *fish_xpm[] = {
"80 80 16 1",
"0	c #060600",
" 	c None",
"2	c #7F0000",
"3	c #323331",
"4	c #323D19",
"5	c #617030",
"6	c #656664",
"7	c #72803E",
"8	c #87933C",
"9	c #A0A29F",
"A	c #C6C92D",
"B	c #C0CF76",
"C	c #BFDF6C",
"D	c #CBCDCA",
"E	c #C8FE67",
"F	c #F9FBF8",
"CCCCCCECCCCCCCECC505CEEECECECEEEC80305CEEEEC00                                  ",
"CCCECCCECCCECCC704CEECCEECCEEECEEE748EEEEEEEC00                                 ",
"CCCCCECCCECCCE808EECCEECCEECCEECEEECEEEEEEEEE80                                 ",
"CCBCCCCCCBCCEC08ECECECCEECEEECEEEEEEEEEEEEEEC800                                ",
"CCCCBCCCCCECCC0CCCECCECCCEEEC875557CCECEEE8403333330                            ",
"CCCCCCCCCCCCC80ECCCEECCEECCC700666604CEEE709FDFFFFF940                          ",
"CCCCCBCCCECCCB4CCECCCEECCE8039FDFFFF608CC09DDFFDFFFFF60                         ",
"BCCCCCCCCBCCE74CECCCECCCE439FDFDFFFFF94536DDFDFFFFFFFF60                        ",
"BCBCCCBCCCCCCB4BCCCBCCEC44DDDDFFFFFFFFF40DDDFFFFFFFFFFF30                       ",
"CCCCCCCCCCCCB84CCCCECCB53DFDFDFFFFFFFFFD4DDFDFF90009FFFD0                       ",
"CCCBCCCCCCBCCE0CCECCCE70DDDFDFFFFFFFFFFF33DDDFD4006FFFFF30                      ",
"CBCCCCCCCCCCCBCCCCCCE809DDFDFFFFFFFFFFFFF09FFF94FD9FDFFF90                      ",
"BCCCBCBCBCCCCCCCBCECC46DDDDFDFFFF9336FFFF93DDF3096030DFF90                      ",
"CCBCCCCCCCCCCCCCCCCEC09DDDDDFFFF60009FFFFF09FD3000000FFF90                      ",
"BBCBCCCBCCCCCCCCCEBC73DDDFDFDFFD04D3DD6FFF66DF6000000FFDD0                      ",
"CBCCCBCBCCCCBCCCCCCC369DDDFDFDF90394000DFFD0DD9000003DFD90                      ",
"BCBCBCCCBCBCCCCCCCCC49DDDDDFDFF300000009FFF09DD300049DFD6                       ",
"CBBCBCBCBCBCCCBCCCCE099DDDDFDFD300000009FFD39DDD633DFDD9000                     ",
"BCCBBCCBCCCBCCCCCCCB0999DDDDDFF300000006FFF66DDDDDDDDD908500                    ",
"CBBBCBCCCCCCCCCCCCCC3699DDDDFDD600000009FFD66999DDDD9608EE800                   ",
"BCCCBBBCBCCCBCBCCBCC469D9DDDDDD90000000DDDF63666666305CEEEE80                   ",
"BBBCCCBCCBBCCCCCCCCBB3999D9DDDDD3000006DFDD055577558CEEEEEEEC0                  ",
"BCBBDCCBCCCBCCCBCCCCB09999D9DDFDD30006FDDD60EEEBEECEEEEEEEEEE50                 ",
"CBCBCBBCBBCBCBCCCCCCC739999DD9DDDD99DDDDD908EEEEEEEEEEEEEEEEEE4000              ",
"BBBCBBCCBCBCBCCCBCBCCB36999999DD9DDDDDDD944ECEEECEEEEEEEEEEEEEC000000           ",
"BBBCCCBCCCBCCCBCCCCCCC8369999999D99DD99D34BEEEEEEEEEEEEEEEEEEEEE04C7400         ",
"BCBBBBCBBCCBCCCBCCBCCEC80399999999D99D934CECEEEEEEEEEEEEEEEEEEEE80AAA800        ",
"CBCDCCBCBBCCCCCCCCCCCCCBB503669999996305CCEEEEEEEEEEEEEEEEEEEEEEE45AAAC00       ",
"BBCBBCBBBCBCBCBCBCCCCCCCBBC84030000005CECEEECECEEEEEEEEEEEEEEEEEC05AAAA80       ",
"CBBCCCBCCCBCCCCCCCCCCCCCCCCEECCEECCEEECEEECEEEEEEEEEEEEEEEEEEEEE44AAAAAA40      ",
"BCBBBBCBBBCBCCCBCBCCCBCCCECBCECCCEECCEECEEEBEEECEEEEEEEEEEEEEEC04AAAAAAA4       ",
"BBBBCBBBCBCCCBCCCCCCCCCCCCCCECCCECECECCEECEEECEEEEEEEEEEEEEEE805AAAAAAAA50      ",
"BBBB9047BCBCBCCCBCBCCCECCCCCCCECCCCECEEECECECEEECEEEEEEEEEE8408AAAAAAAAA40      ",
"DBBC0BBCCCBBCCCCCCCCCCCCCCCECCCEEBCEEECEEECEEEEEEEEEEEEEE8405AAAAAAAAAA70       ",
"BCC55CCBBBCBCCCBCBCCCBCBCECCBEECCEECCEECCEECEEEEEEEEEEC7007AAAAAAAAAAA50        ",
"CBC0BBB7BBCCCBCCCCCCCCCCCCCCECCCECEBECCEECEEEEEEEEC870048AAAAAAAAAAAA0390       ",
"BBB7BBC0005BBCBCBCCCCCCCCCECCCCCCEECCECECEEECEC874007AAAAAAAAAAAAAA504FF90      ",
"CBBCCCB4483047BCCBCCCCCCCCCEEBCEECCEEECEC87740045AAAAAAAAAAAAAAAA704D36FF4      ",
"BCBBDCC7004C54007BBCCCBCCECCCECCCC87754004758AAAAAAAAAAAAAAAAAA7040DFF36F90     ",
"BBCBCBBB00205AC75000357575757440004457AAAAAAAAAAAAAAAAAAAAAAA5349F90DFF0DD0     ",
"BBBBBBCC0002204AACAC7555557558AAAAAAAAAAAAAAAAAAAAAAAAAAAA50003FFFF90FF9390     ",
"CDBCCBBC5402222048AAACAACAAAAAAAAAAAAAAAAAAAAAAAAAAAAA874069F946FFFF63FF00      ",
"BCCBBBCB807022222004AAAAAAAAAAAAAAAAAAAAAAAAAAAAAAA5300009FFFFD36FFFF39F6       ",
"CBCBCBBCC08422222239304AAAAAAAAAAAAAAAAAAAAAA740333302220FFFFFFF66FFF93F90      ",
"BCBBBBBCB84A022220DFFD3000758A888AAA857440000200FFFF90223FFFFFFFF39FFF0900      ",
"BCDCCCBCCB08742226FFFF93FD96340333330039DDF90206FFFFFD026FFFFFFFFF0DFF6440      ",
"BCCBBCCBCC80A42209FFFF39FFFFF39FFFFF40FFFFFF620DFFFFFFD09FFFFFFFFF93FF69D0      ",
"CBCBBBBCCBC05A020DFFFD0FFFFF94FFFFFF39FFFFFFD03FFFFFFFF96FFFFFFFFFF4936FF00     ",
"BCBCBCCCBCB80A800DFFFD3FFFFF69FFFFFD4FFFFFFFF66FFFFFFFFF3DFFFFFFFFF9490DF30     ",
"CBBCCCBCCCBC44A40049963FFFFF0DFFFFF66FFFFFFFF69FFFFFFFFFD6FFFFFFFFFD4F66F30     ",
"BBCBCBCBCCCCB0AA0222003FFFFD4FFFFFF4DFFFFFFFF3DFFFFFFFFFF4FFFFFFFFF93FF0D4      ",
"CBCCCBCCCCCCC80AA022463FFFFD3FFFFFF0FFFFFFFFF3DFFFFFFFFFF69FFFFFFF93FFF660      ",
"BCCCBCBCBCCCCC54A8009F6049963FFFFFD0FFFFFFFFF69FFFFFFFFFF96FFFFF9346FFF90000    ",
"CBBCCCCCCBCCCCC55A509FF600003FFFFFD3FFFFFFFFF96FFFFFFFFFF60333306DF0DFFD0A700   ",
"CCCBCCBBCCCCBCCC0AA43FD09DDD49FFFFF0FFFFFFFFFD4FFFFFFFFD33DDDDDFFFF69FF908AA0   ",
"CBCCCBCCCCCCCCCCB0AA43D3FFFF90069990DFFFFFFFFD0369DDD930009FFFFFFFF96FFD04AAA00 ",
"BBBCBCCCBCBCCCECC84AA003FFF93996300340699D9960096333369FF93FFFFFFFFD4FF904AAA50 ",
"CCBCCCCCCCCCCCCCCC74AA00FFF69FFF96FFF93000006D4FFFFFFFFFFF0FFFFFFFFF0FF604AAAA0 ",
"CCCCCCCCCBCCCECCCEC44AA03FF3DFFF99FFFFD3FFFFFD3FFFFFFFFFFF0FFFFFFFFF033008AAAA50",
"CCCCCBCCCCBCCBCCCBEC74AA43F69FFF99FFFFD3FFFFFF0FFFFFFFFFFD3FFFFFFFFF00005AAAAA5 ",
"BCCCCCCCCCECCCCCCCECB47AA4406FFF99FFFF93FFFFFF0DFFFFFFFFF90DFFFFFFFD0208AAAAAA80",
"CCCCCCCCCCCCCCCECCCEEC47AA500DFF96FFFFD4FFFFFF39FFFFFFFFF604FFFFFFF604AAAAAAAA80",
"BCBCCCCCCECCCEBCCECCCEC07AA703FF90FFFFF0FFFFFF93FFFFFFFFF0220DFFF9308AAAAAAAAA50",
"4CCBCCCBCCBCECCCECECECCC57AAA443009FFFF39FFFFFF0DFFFFFFF9022206604AAAAAAAAAAAA4 ",
"40BCCBECCCCCCCECCCCCCEECC57AAA70020FFFF94FFFFFF63FFFFFFF02222005AAAAAAAAAAAAAA0 ",
"C807CCCCCCCECCCEECCEECCEEC47AAAA4003FFF009FFFFF309FFFFF602005AAAAAAAAAAAAAAAA50 ",
"AAC04CCCCEBCCEEBCEECCEECCEE54AAAAA40430220DFFF60209FF960047AAAAAAAAAAAAAAAAA70  ",
"AAAC40CCECECECCCECECECCEECEE84AAAAAA50022209D6022204005AAAAAAAAAAAAAAAAAAAAA0   ",
"AAAAA708CCECCECBCEECCECECEEEC84AAAAAAA85400000000557AAAAAAAAAAAAAAAAAAAAAA70    ",
"AAAACA804CCEECCEEBCEEECEEECEEE748AAAAAAAAAAAAAAAAAAAAAAAAAAAAAAAAAAAAAAAA40     ",
"AAAAAAAA408CCEECCEECCEECEEECEEEC54AAAAAAAAAAAAAAAAAAAAAAAAAAAAAAAAAAAAB40       ",
"AAAAAAAAA804BCCEECECECCEECEEECEEE703AAAAAAAAAAAAAAAAAAAAAAAAAAAAABAA8400        ",
"AAAAAAAAAAA405ECCECECEEECECEBEEECEC7007AAAAAAAAAAAAAAAAAAAAAAAAAAA300           ",
"AAAAAAAAAA80 007CCCEEECEEECEEEEEEEEEEC40448AAAAAAAAAAAAAAAABAA74400             ",
"AAAAAAAAAA0    0078CEEECEEECEEEEEEEEC85000 004778AB88AB8887400 0                ",
"AAAAAAAAA00      00037CEEEEEEEEC8754000       0 00000000000                     ",
"AAAACAA70           00000000000000                                              ",
"AAAAAA40                                                                        ",
"AAA740                                                                          ",
"4000                                                                            "
};
